HIERARCHY
ROOT Hips
{
	OFFSET 0.00000 0.00000 0.00000
	CHANNELS 6 Xposition Yposition Zposition Zrotation Yrotation Xrotation 
	JOINT LHipJoint
	{
		OFFSET 0 0 0
		CHANNELS 3 Zrotation Yrotation Xrotation
		JOINT LeftHip
		{
			OFFSET 1.66553 -1.82942 0.76350
			CHANNELS 3 Zrotation Yrotation Xrotation
			JOINT LeftKnee
			{
				OFFSET 2.41740 -6.64177 0.00000
				CHANNELS 3 Zrotation Yrotation Xrotation
				JOINT LeftAnkle
				{
					OFFSET 2.71614 -7.46254 0.00000
					CHANNELS 3 Zrotation Yrotation Xrotation
					JOINT LeftToe
					{
						OFFSET 0.08005 -0.21993 1.82495
						CHANNELS 3 Zrotation Yrotation Xrotation
						End Site
						{
							OFFSET 0.00000 -0.00000 0.93441
						}
					}
				}
			}
		}
	}
	JOINT RHipJoint
	{
		OFFSET 0 0 0
		CHANNELS 3 Zrotation Yrotation Xrotation
		JOINT RightHip
		{
			OFFSET -1.63725 -1.82942 0.76350
			CHANNELS 3 Zrotation Yrotation Xrotation
			JOINT RightKnee
			{
				OFFSET -2.40538 -6.60872 0.00000
				CHANNELS 3 Zrotation Yrotation Xrotation
				JOINT RightAnkle
				{
					OFFSET -2.73312 -7.50919 0.00000
					CHANNELS 3 Zrotation Yrotation Xrotation
					JOINT RightToe
					{
						OFFSET -0.15567 -0.42769 1.93504
						CHANNELS 3 Zrotation Yrotation Xrotation
						End Site
						{
							OFFSET -0.00000 -0.00000 1.00100
						}
					}
				}
			}
		}
	}
	JOINT lowerback
	{
		OFFSET 0 0 0
		CHANNELS 3 Zrotation Yrotation Xrotation
		JOINT Chest
		{
			OFFSET 0.00326 2.30118 -0.13017
			CHANNELS 3 Zrotation Yrotation Xrotation
			JOINT Chest2
			{
				OFFSET 0.02887 2.30677 0.00834
				CHANNELS 3 Zrotation Yrotation Xrotation
				JOINT lowerneck
				{
					OFFSET 0 0 0
					CHANNELS 3 Zrotation Yrotation Xrotation
					JOINT Neck
					{
						OFFSET 0.12946 1.68326 0.00713
						CHANNELS 3 Zrotation Yrotation Xrotation
						JOINT Head
						{
							OFFSET -0.24364 1.67243 -0.16079
							CHANNELS 3 Zrotation Yrotation Xrotation
							End Site
							{
								OFFSET -0.09229 1.70819 -0.06383
							}
						}
					}
				}
				JOINT LeftCollar
				{
					OFFSET 0 0 0
					CHANNELS 3 Zrotation Yrotation Xrotation
					JOINT LeftShoulder
					{
						OFFSET 3.28104 0.69567 -0.00556
CHANNELS 3 Zrotation Xrotation Yrotation
						JOINT LeftElbow
						{
OFFSET 0 -5.707060 -0.000000
CHANNELS 3 Zrotation Xrotation Yrotation
							JOINT LeftWrist
							{
OFFSET 0 -3.332430 0.000000
CHANNELS 3 Zrotation Xrotation Yrotation
								JOINT lhand
								{
									OFFSET 0 0 0
CHANNELS 3 Zrotation Xrotation Yrotation
									JOINT LFingers
									{
OFFSET 0 -0.792690 0.000000
CHANNELS 3 Zrotation Xrotation Yrotation
										End Site
										{
OFFSET 0 -0.639090 0.000000
										}
									}
								}
								JOINT LThumb
								{
OFFSET 0 0.000000 0.000000
CHANNELS 3 Zrotation Xrotation Yrotation
									End Site
									{
OFFSET 0 -0.648840 0.648840
									}
								}
							}
						}
					}
				}
				JOINT RightCollar
				{
					OFFSET 0 0 0
					CHANNELS 3 Zrotation Yrotation Xrotation
					JOINT RightShoulder
					{
						OFFSET -3.40955 0.64424 0.14010
CHANNELS 3 Zrotation Xrotation Yrotation
						JOINT RightElbow
						{
OFFSET 0 -5.881760 -0.000000
CHANNELS 3 Zrotation Xrotation Yrotation
							JOINT RightWrist
							{
OFFSET 0 -3.281560 0.000000
CHANNELS 3 Zrotation Xrotation Yrotation
								JOINT rhand
								{
									OFFSET 0 0 0
CHANNELS 3 Zrotation Xrotation Yrotation
									JOINT RFingers
									{
OFFSET 0 -0.863130 0.000000
CHANNELS 3 Zrotation Xrotation Yrotation
										End Site
										{
OFFSET 0 -0.695870 0.000000
										}
									}
								}
								JOINT RThumb
								{
OFFSET 0 0.000000 0.000000
CHANNELS 3 Zrotation Xrotation Yrotation
									End Site
									{
OFFSET 0 -0.706500 0.706500
									}
								}
							}
						}
					}
				}
			}
		}
	}
}
MOTION
Frames: 8
Frame Time: 0.008333333333333333
30.167700 15.953300 -33.218000 -0.988900 -36.844500 16.775700 0.000000 0.000000 0.000000 -6.202600 3.595900 -52.998800 9.947700 17.380400 59.313600 1.769800 -10.435000 -23.915000 5.333700 -13.750100 -42.245300 0.000000 0.000000 0.000000 13.210300 -1.923300 -51.609700 -10.913500 -17.892500 62.500200 -2.231000 14.504200 -27.234000 -0.673500 -5.248000 14.617200 1.777500 -1.853500 15.690600 -1.383000 -2.272500 0.710700 -1.977800 -1.200000 -8.179200 15.543500 4.378000 9.014900 -19.891800 4.864600 -19.387300 -9.700500 2.956900 -6.250300 -0.000000 0.000000 0.000000 70.891400 24.217400 33.827700 149.943600 -40.941700 108.553500 51.229400 -57.095300 -30.415600 0.000000 0.000000 0.000000 -7.125000 0.000000 0.000000 33.622100 70.522700 -21.256000 -0.000000 0.000000 0.000000 -57.879800 6.183800 -37.106200 -153.132200 -38.052900 -110.582500 -20.320500 -38.980800 6.015200 0.000000 0.000000 0.000000 7.125000 0.000000 -0.000000 5.390700 36.345800 1.151200
30.117619 15.957468 -33.152180 -1.141535 -36.658294 16.407411 0.000000 0.000000 0.000000 -5.898882 3.294444 -51.958190 9.925838 17.367892 59.240065 1.798601 -9.337825 -24.052856 5.112131 -13.507941 -41.302846 0.000000 0.000000 0.000000 13.361623 -2.080504 -50.602454 -10.859415 -17.865657 62.324293 -2.346814 14.069427 -27.839665 -0.523888 -4.638089 12.879167 1.754802 -2.040536 15.308817 -1.316663 -2.523978 1.220438 -1.854448 -1.311590 -7.424032 14.728136 4.203560 10.615946 -18.360210 5.344261 -15.684286 -8.869777 3.212719 -5.423940 0.000000 0.000000 0.000000 71.356680 26.216924 33.831889 147.895359 -42.630108 107.188283 50.466346 -59.052167 -31.154346 0.000000 0.000000 0.000000 -7.125000 0.000000 0.000000 32.473718 71.121581 -20.895742 0.000000 0.000000 0.000000 -58.292310 6.917378 -37.940902 -152.743654 -38.422473 -110.341969 -18.779979 -37.432361 5.936689 0.000000 0.000000 0.000000 7.125000 0.000000 0.000000 6.669258 36.179137 1.454259
30.070620 15.993572 -33.089110 -1.144771 -36.383898 16.278182 0.000000 0.000000 0.000000 -5.807678 2.707257 -51.054749 9.756311 17.270468 58.670659 1.795137 -9.483560 -24.034230 4.868688 -13.233994 -40.251525 0.000000 0.000000 0.000000 13.405631 -1.960722 -49.632107 -10.665431 -17.767399 61.690169 -2.441438 13.441302 -28.306046 -0.490579 -4.487757 12.453720 1.779106 -1.947059 15.090093 -1.445498 -2.409280 1.099112 -2.034711 -1.260199 -7.434443 15.496754 3.888118 10.970696 -17.482823 5.386171 -14.019237 -8.627631 3.150486 -4.992630 0.000000 0.000000 0.000000 73.337904 26.302152 31.389931 146.882679 -43.420028 106.497334 49.227287 -60.883036 -31.433358 0.000000 0.000000 0.000000 -7.125000 0.000000 0.000000 29.872010 71.065317 -19.089568 0.000000 0.000000 0.000000 -58.985657 8.373242 -37.027234 -151.458576 -39.609531 -109.532812 -18.270230 -37.787947 6.396518 0.000000 0.000000 0.000000 7.125000 0.000000 0.000000 7.152211 36.631274 1.481557
30.006676 16.049574 -33.017577 -1.388007 -36.195693 16.466798 0.000000 0.000000 0.000000 -5.675815 2.764083 -50.296663 9.537944 17.141645 57.932424 1.936615 -10.261815 -25.002855 4.382533 -12.649627 -38.075614 0.000000 0.000000 0.000000 13.810244 -1.989400 -48.646358 -10.346138 -17.599902 60.638960 -2.493713 12.982068 -28.558302 -0.414746 -4.132118 11.448816 1.732455 -2.069365 14.555215 -1.294319 -2.572354 0.846280 -1.823387 -1.336322 -7.406823 15.534733 3.922818 10.989247 -17.115967 5.492938 -14.048826 -8.513177 3.174243 -4.999557 0.000000 0.000000 0.000000 73.891381 25.202527 29.380983 147.205335 -43.171553 106.718673 49.428440 -59.318818 -31.859366 0.000000 0.000000 0.000000 -7.125000 0.000000 0.000000 30.610032 71.598986 -19.936813 0.000000 0.000000 0.000000 -59.934356 7.679536 -36.016963 -150.242067 -40.684986 -108.748496 -17.868102 -37.950457 6.418234 0.000000 0.000000 0.000000 7.125000 0.000000 0.000000 7.491629 36.630857 1.552751
29.952048 16.093270 -32.943678 -1.228446 -35.755982 16.478791 0.000000 0.000000 0.000000 -5.913479 2.709454 -49.815203 9.353378 17.029795 57.304365 1.883237 -8.681098 -24.610738 5.391367 -13.809750 -42.483884 0.000000 0.000000 0.000000 13.861027 -2.427843 -47.960967 -10.118133 -17.475716 59.882484 -2.472338 13.191426 -28.457142 -0.494944 -4.499284 12.487538 1.537532 -2.230587 14.671784 -1.136588 -2.802832 0.505043 -1.486603 -1.441316 -7.832710 15.467626 4.359969 9.117649 -17.264280 5.844028 -13.619422 -8.455307 3.295198 -4.475298 0.000000 0.000000 0.000000 73.116531 23.931808 28.681441 148.193676 -42.392220 107.389887 49.649565 -58.079754 -31.290232 0.000000 0.000000 0.000000 -7.125000 0.000000 0.000000 30.720615 71.031597 -19.641909 0.000000 0.000000 0.000000 -60.117352 6.393074 -35.512098 -150.108588 -40.800164 -108.661423 -17.922706 -37.506798 6.423696 0.000000 0.000000 0.000000 7.125000 0.000000 0.000000 7.446658 36.639603 1.541781
29.885779 16.131566 -32.854588 -1.459017 -35.610542 16.663736 0.000000 0.000000 0.000000 -5.839099 2.963237 -49.227654 9.174188 16.918540 56.690552 1.923001 -9.638601 -24.892234 4.981309 -13.354659 -40.725488 0.000000 0.000000 0.000000 14.124424 -2.362102 -46.859589 -9.824302 -17.309801 58.899357 -2.548397 13.506727 -28.915058 -0.697906 -5.339971 14.880790 1.704560 -2.212540 14.612634 -1.102876 -2.749009 0.594701 -1.560117 -1.419699 -7.707001 15.587723 4.723966 6.486890 -17.639879 6.004324 -13.041683 -8.463428 3.293248 -3.794321 0.000000 0.000000 0.000000 72.476707 23.077942 29.140212 148.604495 -42.059909 107.666023 49.312918 -58.603080 -31.007715 0.000000 0.000000 0.000000 -7.125000 0.000000 0.000000 29.787045 70.614977 -18.744006 0.000000 0.000000 0.000000 -59.509468 4.850532 -35.952033 -150.185121 -40.734155 -108.711390 -17.653375 -36.872834 5.846411 0.000000 0.000000 0.000000 7.125000 0.000000 0.000000 7.596260 36.024744 1.688143
29.822644 16.167394 -32.768281 -1.476546 -35.479302 16.969655 0.000000 0.000000 0.000000 -5.798678 2.658620 -48.820839 9.066705 16.850421 56.320537 2.018471 -9.856997 -25.510218 4.538888 -12.841659 -38.783965 0.000000 0.000000 0.000000 14.217433 -2.293982 -46.287066 -9.592078 -17.173980 58.116046 -2.727157 12.723051 -29.840665 -0.471884 -4.404831 12.218600 2.024300 -1.867096 14.274398 -1.426272 -2.269971 -0.003188 -2.189877 -1.215468 -8.167629 16.230980 4.008067 9.067737 -17.870106 5.314131 -14.403922 -8.822491 3.026630 -4.744144 0.000000 0.000000 0.000000 73.335288 22.707231 27.785525 148.561711 -42.094757 107.637382 48.921404 -57.984143 -32.028816 0.000000 0.000000 0.000000 -7.125000 0.000000 0.000000 29.566744 71.636617 -19.244888 0.000000 0.000000 0.000000 -58.842579 7.331092 -35.296061 -151.106648 -39.925701 -109.307847 -17.629909 -37.406892 5.852239 0.000000 0.000000 0.000000 7.125000 0.000000 0.000000 7.616672 36.029561 1.691673
29.764326 16.193796 -32.689051 -1.654345 -34.954160 17.415564 0.000000 0.000000 0.000000 -5.558693 2.291420 -48.576396 8.958378 16.780891 55.946092 1.927404 -9.240188 -24.903461 4.881284 -13.239262 -40.287645 0.000000 0.000000 0.000000 14.552505 -2.329758 -45.598253 -9.305689 -17.000422 57.141303 -2.836725 11.847351 -30.394361 -0.429917 -4.207587 11.661464 2.263299 -1.824113 14.127266 -1.406957 -2.173892 -0.283626 -2.326299 -1.183805 -8.391038 16.172673 3.621384 10.764277 -17.620689 5.020212 -14.812444 -8.814619 2.927274 -5.235827 0.000000 0.000000 0.000000 73.790561 23.574350 27.288934 148.710436 -41.973350 107.736889 50.319373 -57.239371 -30.969870 0.000000 0.000000 0.000000 -7.125000 0.000000 0.000000 31.996829 70.873020 -20.399635 0.000000 0.000000 0.000000 -58.850523 8.796523 -35.381460 -151.539173 -39.536992 -109.584204 -17.488162 -37.686340 5.982533 0.000000 0.000000 0.000000 7.125000 0.000000 0.000000 7.751426 36.157188 1.697816
